<?xml version="1.0" standalone="no"?>
<!DOCTYPE svg PUBLIC "-//W3C//DTD SVG 20010904//EN"
 "http://www.w3.org/TR/2001/REC-SVG-20010904/DTD/svg10.dtd">
<svg version="1.0" xmlns="http://www.w3.org/2000/svg"
 width="1646.000000pt" height="1646.000000pt" viewBox="0 0 1646.000000 1646.000000"
 preserveAspectRatio="xMidYMid meet">
<metadata>
Created by potrace 1.14, written by Peter Selinger 2001-2017
</metadata>
<g transform="translate(0.000000,1646.000000) scale(0.100000,-0.100000)"
fill="#000000" stroke="none">
<path d="M9190 15364 c-130 -24 -291 -86 -405 -157 -44 -27 -162 -124 -204
-167 -140 -146 -248 -348 -283 -534 -7 -36 -16 -66 -21 -66 -4 0 -6 4 -3 8 6
10 -36 174 -59 227 -38 89 -51 113 -104 195 -74 114 -241 281 -313 312 -15 7
-28 16 -28 20 0 5 -6 8 -14 8 -8 0 -16 3 -18 8 -8 18 -194 92 -281 112 -23 5
-55 12 -72 17 -16 4 -1056 8 -2310 10 -2476 2 -2355 4 -2529 -53 -166 -55
-298 -137 -426 -264 -47 -47 -104 -114 -128 -150 -23 -36 -45 -69 -49 -75 -15
-19 -66 -134 -62 -138 2 -2 -2 -11 -10 -20 -7 -10 -11 -17 -7 -17 4 0 0 -13
-8 -29 -8 -15 -17 -41 -20 -57 -9 -47 -15 -77 -23 -109 -4 -16 -8 -1060 -10
-2320 -1 -1859 1 -2302 12 -2355 25 -127 37 -170 46 -176 5 -3 7 -9 4 -14 -5
-8 109 -239 123 -249 4 -3 19 -22 32 -41 30 -43 151 -166 205 -207 79 -60 236
-146 290 -158 5 -1 17 -5 25 -8 35 -14 136 -40 152 -39 10 0 20 -3 23 -7 2 -5
-17 -11 -44 -14 -26 -3 -74 -15 -107 -27 -32 -11 -67 -22 -76 -25 -10 -2 -58
-25 -109 -51 -311 -161 -520 -447 -583 -799 -21 -118 -22 -4570 -1 -4687 62
-344 261 -624 560 -790 80 -43 205 -94 260 -104 15 -3 58 -11 94 -19 56 -12
419 -14 2336 -14 2464 0 2340 -3 2507 54 40 14 78 27 83 28 6 2 42 19 80 39
288 148 493 408 573 725 l18 73 13 -50 c7 -27 14 -55 15 -62 2 -7 6 -21 9 -30
11 -28 18 -53 18 -56 -1 -2 87 -173 105 -204 6 -10 23 -32 38 -48 14 -16 26
-33 26 -37 0 -9 165 -173 174 -173 3 0 27 -16 52 -36 40 -30 118 -76 134 -79
3 0 15 -6 26 -13 56 -31 203 -76 294 -90 61 -9 4602 -9 4664 1 53 7 194 45
211 55 6 4 15 7 21 8 33 5 213 107 263 149 106 88 212 207 268 300 55 93 115
250 139 370 4 22 9 1071 11 2330 2 1945 0 2301 -12 2360 -8 39 -17 81 -19 95
-9 40 -58 172 -79 210 -47 85 -72 125 -79 128 -4 2 -8 10 -8 17 0 7 -3 15 -7
17 -5 2 -26 26 -48 53 -22 28 -50 59 -63 69 -13 10 -34 29 -45 41 -99 102
-349 228 -497 251 -49 8 -48 11 7 19 57 8 200 56 264 88 162 83 329 229 423
370 98 150 144 262 176 432 19 96 19 182 16 2390 -1 1260 -5 2305 -9 2323 -19
94 -48 183 -88 270 -16 35 -29 65 -29 67 0 3 -27 45 -60 94 -168 249 -435 421
-735 475 -116 21 -4590 20 -4705 0z m-891 -5666 c35 -177 142 -379 268 -513
50 -52 167 -155 176 -155 3 0 25 -13 49 -29 91 -61 195 -105 337 -141 47 -12
48 -18 5 -26 -44 -8 -174 -54 -219 -77 -22 -12 -43 -21 -46 -22 -4 0 -44 -25
-90 -55 -75 -48 -189 -153 -259 -235 -31 -37 -117 -180 -126 -209 -4 -11 -10
-23 -13 -26 -8 -6 -56 -159 -67 -210 l-7 -35 -9 30 c-4 17 -10 39 -12 50 -23
106 -109 286 -186 388 -155 205 -371 349 -616 411 -33 9 -70 17 -82 19 -12 2
-25 7 -29 11 -5 4 -3 6 2 5 34 -10 207 41 309 92 63 32 127 69 136 79 3 3 28
22 55 42 28 20 57 45 66 55 9 10 25 26 35 35 44 38 131 149 160 203 59 109
117 246 123 288 7 53 15 87 20 87 4 0 13 -28 20 -62z"/>
</g>
</svg>
